<svg id="Capa_1" enable-background="new 0 0 512 512" height="512" viewBox="0 0 512 512" width="512" xmlns="http://www.w3.org/2000/svg"><g><path d="m437.02 74.98c-48.353-48.351-112.64-74.98-181.02-74.98s-132.667 26.629-181.02 74.98c-48.351 48.353-74.98 112.64-74.98 181.02s26.629 132.667 74.98 181.02c48.353 48.351 112.64 74.98 181.02 74.98s132.667-26.629 181.02-74.98c48.351-48.353 74.98-112.64 74.98-181.02s-26.629-132.667-74.98-181.02zm-156.02 286.02c-18.908 0-36.293-6.608-50-17.616v2.616c0 35.841-29.159 65-65 65-8.284 0-15-6.716-15-15s6.716-15 15-15c19.299 0 35-15.701 35-35v-175c0-38.598 31.402-70 70-70s70 31.402 70 70c0 15.986-5.411 31.334-15.326 43.717 21.579 14.598 35.326 39.297 35.326 66.283 0 44.112-35.888 80-80 80z"/><path d="m299.919 234.767c-7.074 3.209-14.691 5.238-22.572 5.949-8.243.744-15.543-5.342-16.286-13.593-.743-8.25 5.342-15.542 13.593-16.286 6.658-.54 12.464-2.776 17.906-6.054 11.181-7.099 18.44-19.578 18.44-33.783 0-22.056-17.944-40-40-40s-40 17.944-40 40v110c0 27.57 22.43 50 50 50s50-22.43 50-50c0-20.361-12.532-38.638-31.081-46.233z"/></g></svg>